<svg width="643" height="238" viewBox="0 0 643 238" fill="none" xmlns="http://www.w3.org/2000/svg">
<path d="M143.277 198.937V233.143H186.681V0H143.277V198.937Z" fill="white"/>
<path d="M47.1608 127.884C47.1608 118.945 55.846 115.564 63.0721 115.564C67.9793 115.473 72.8349 116.576 77.2207 118.779C81.6066 120.982 85.391 124.218 88.2478 128.209L114.859 100.14C101.843 85.3411 81.2996 80.4082 62.7942 80.4082C33.2875 80.4082 3.78075 95.809 3.78075 130.965C3.78075 188.029 76.9686 167.672 76.9686 191.734C76.9686 199.747 67.1253 202.526 57.282 202.526C44.2657 202.526 34.7234 196.667 26.6172 186.176L0.306641 217.325C14.2031 232.425 35.8815 237.682 55.5449 237.682C85.6538 237.682 120.395 226.589 120.395 188.33C120.349 131.289 47.1608 150.094 47.1608 127.884Z" fill="#F9FBFC"/>
<path d="M590.511 79.5747C569.388 79.5747 555.214 91.8954 551.138 103.614H550.559V0H507.202V233.143H550.605V158.524C550.605 139.094 554.056 120.265 576.638 120.265C599.219 120.265 599.196 142.475 599.196 159.752V233.143H642.599V150.488C642.599 110.4 634.493 79.5747 590.511 79.5747Z" fill="white"/>
<path d="M369.676 142.37C375.332 166.323 398.043 171.505 416.441 175.702C430.197 178.841 441.541 181.429 441.541 190.903C441.541 198.916 431.698 201.695 421.855 201.695C408.838 201.695 399.296 195.835 391.19 185.344L364.879 216.493C378.776 231.593 400.454 236.85 420.118 236.85C450.227 236.85 484.968 225.757 484.968 187.498C484.939 152.375 457.18 146.009 435.85 141.118C422.54 138.065 411.734 135.587 411.734 127.053C411.734 118.113 420.419 114.732 427.645 114.732C432.552 114.641 437.408 115.745 441.794 117.947C446.179 120.15 449.964 123.386 452.821 127.377L479.432 99.3082C467.574 85.8262 449.468 80.5325 432.348 79.6973L369.676 142.37Z" fill="#0C76E4"/>
<path fill-rule="evenodd" clip-rule="evenodd" d="M346.119 162.934V156.975C346.072 106.972 332.477 79.5762 281.848 79.5762C258.988 79.5762 235.851 87.5896 219.939 103.617L243.1 128.905C252.364 117.813 264.223 111.027 278.397 111.027C293.451 111.027 306.19 121.516 306.19 137.844C270.036 137.844 211.022 138.77 211.022 190.578C211.022 220.686 234.739 236.894 261.073 236.894C265.179 236.894 269.269 236.543 273.248 235.803L346.119 162.934ZM273.162 205.398C290.232 205.398 306.143 195.86 306.143 177.333V167.464H295.443C282.149 167.464 252.642 168.691 252.642 189.049C252.642 200.142 263.62 205.398 273.162 205.398Z" fill="#E22060"/>
</svg>
