<svg width="480" height="74" viewBox="0 0 480 74" fill="none" xmlns="http://www.w3.org/2000/svg">
<path d="M68.7559 18.479C66.2544 12.5621 61.5882 7.89584 55.6712 5.39436C52.5444 4.14362 49.3694 3.51824 46.0982 3.51824H0.782871V70H20.7947V52.5858H46.0982C49.4175 52.5858 52.5925 51.9604 55.6712 50.7097C61.5882 48.2082 66.2544 43.4939 68.7559 37.5769C71.2574 31.5637 71.2574 24.4922 68.7559 18.479ZM42.0574 36.6148H20.7947V19.4412H42.0574C44.4145 19.4412 46.435 20.3071 48.1187 21.9907C49.8023 23.6744 50.6682 25.6949 50.6682 28.052C50.6682 30.4092 49.8023 32.4296 48.1187 34.1133C46.435 35.797 44.4145 36.6148 42.0574 36.6148ZM96.7802 3.51824L64.1647 70H86.4375L90.3822 62.0145H125.547L129.492 70H151.669L119.053 3.51824H96.7802ZM98.0791 46.0435L107.941 26.1759L117.562 46.0435H98.0791ZM196.385 3.51824L180.03 26.2721L163.674 3.51824H139.14L170.072 46.5726V70H189.987V46.5726L220.919 3.51824H196.385Z" fill="#00E893"/>
<path d="M256.689 73.2712C266.743 73.3193 275.209 72.1647 282.088 69.8076C290.892 66.7288 297.723 61.3891 302.581 53.8366C305.516 49.3628 307.825 43.8787 309.46 37.2883C311.192 30.6497 311.673 25.0695 310.855 20.5476C309.653 12.8026 305.371 7.27047 297.963 3.9993C292.142 1.49781 284.253 0.295178 274.199 0.439495C264.289 0.295178 255.823 1.49781 248.799 3.9993C239.996 7.12615 233.165 12.514 228.306 20.0665C225.276 24.5403 222.967 30.0244 221.331 36.5667C219.744 43.109 219.311 48.5931 220.128 53.0669C221.235 60.8119 225.564 66.344 233.021 69.6152C238.553 72.0685 245.913 73.2712 255.197 73.2712H256.689ZM274.199 2.98908C283.868 2.84477 291.421 3.9993 296.857 6.35647C303.495 9.2428 307.296 14.1014 308.306 20.9324V21.0286C309.027 25.1657 308.594 30.3611 307.007 36.6629C305.419 42.9166 303.255 48.1601 300.416 52.3453C296.279 58.7914 290.699 63.4577 283.724 66.3921C276.749 69.3265 267.705 70.7216 256.689 70.5773C247.019 70.7216 239.467 69.6152 234.031 67.258C227.44 64.3717 223.688 59.513 222.678 52.682H222.582C221.956 48.545 222.389 43.3496 223.929 37.0959C225.468 30.8421 227.633 25.6468 230.471 21.5097V21.4135C238.601 8.95416 252.07 2.98908 272.852 2.98908H274.199ZM285.023 46.6688C286.466 44.5041 287.717 41.3291 288.775 37.1921C289.833 33.055 290.122 29.88 289.689 27.7153C288.582 20.0184 282.425 16.3143 270.254 16.3143C258.565 16.3143 250.387 19.9703 245.817 27.2342C244.325 29.399 243.075 32.5258 242.064 36.5667C241.102 40.5595 240.814 43.6863 241.199 45.8511C241.68 49.5552 243.46 52.3453 246.538 54.2214C249.858 56.338 254.524 57.3964 260.633 57.3964C272.515 57.3964 280.645 53.8366 285.023 46.6688ZM287.139 28.1482V28.2445C287.524 30.0725 287.236 32.9107 286.273 36.711C285.311 40.5113 284.157 43.3977 282.858 45.2738C278.961 51.5756 271.553 54.7506 260.633 54.7506C250.194 54.7506 244.566 51.6718 243.748 45.4662V45.37C243.363 43.542 243.652 40.7519 244.566 37.0478C245.528 33.3436 246.635 30.5535 247.885 28.7255L247.981 28.6293C252.119 22.1351 259.527 18.8639 270.254 18.8639C276.845 18.8639 281.511 19.9703 283.772 21.9426C286.033 23.8669 286.899 25.6468 287.139 28.1482ZM358.555 71.8761C363.894 70.6254 368.705 68.6049 373.035 65.8629C377.893 62.7361 382.03 58.6471 385.35 53.6441C388.428 48.8817 390.737 43.3015 392.325 36.9996L401.08 2.12319H378.422L369.86 36.4224C369.33 38.6352 368.657 40.6557 367.743 42.4356C366.011 45.9473 364.376 48.1601 361.874 49.7476C360.623 50.5173 359.517 51.0946 358.603 51.4794C357.689 51.8642 356.534 52.1529 355.139 52.3934C353.744 52.5858 352.638 52.682 351.916 52.7301C351.195 52.7782 350.233 52.7782 348.982 52.7782C347.154 52.7782 345.711 52.7301 344.652 52.682C343.594 52.6339 342.295 52.3453 340.756 51.8161C339.216 51.287 338.062 50.4692 337.244 49.4109C335.272 46.9094 335.031 42.7723 336.474 36.9996L345.133 2.12319H322.572L314.009 36.4224C312.422 42.7723 311.989 48.3525 312.806 53.1631C313.672 58.3104 315.837 62.4955 319.349 65.7667C324.737 70.7697 333.155 73.2712 344.556 73.2712C349.703 73.2712 354.37 72.7901 358.555 71.8761ZM341.91 4.76899L334.021 36.4224C332.337 43.0128 332.722 47.8715 335.176 50.9983C336.234 52.2972 337.677 53.3074 339.505 54.029C341.381 54.7025 342.92 55.0873 344.171 55.1835C345.422 55.2797 347.009 55.3278 348.982 55.3278C350.281 55.3278 351.339 55.3278 352.109 55.2797C352.926 55.2316 354.081 55.1354 355.62 54.8949C357.16 54.6544 358.459 54.3176 359.565 53.8847C361.73 53.0669 364.905 51.2389 366.973 48.6893C369.042 46.1397 371.158 42.1469 372.457 36.9996L380.395 4.76899H397.761L389.871 36.4224C388.38 42.4356 386.119 47.6791 383.185 52.1529C380.058 56.9153 376.209 60.7638 371.639 63.6982C367.599 66.344 363.077 68.2201 358.074 69.3265C353.985 70.2405 349.511 70.6735 344.556 70.6735C333.829 70.6735 325.987 68.4125 321.129 63.8906C318.098 61.0043 316.222 57.3002 315.404 52.7782C314.683 48.3044 315.019 43.0128 316.462 36.9996L324.544 4.76899H341.91ZM447.865 20.74H474.468L479.086 2.12319H403.224L398.605 20.74H425.208L412.604 71.2988H435.262L447.865 20.74ZM428.575 18.1904H401.973L405.196 4.76899H475.767L472.399 18.1904H445.797L433.193 68.7012H415.972L428.575 18.1904ZM459.967 55.424L456.022 71.3951H471.945L475.986 55.424H459.967ZM470.021 68.7012H459.341L462.035 57.9736H472.667L470.021 68.7012Z" fill="black"/>
</svg>
