<svg width="1362" height="163" viewBox="0 0 1362 163" fill="none" xmlns="http://www.w3.org/2000/svg">
<path d="M1198.04 76.598H1234.26V93H1250.31V76.598H1262.94V62.674H1250.31V16.418H1230.25L1198.04 59.606V76.598ZM1234.26 62.674H1212.43L1234.26 33.41V62.674ZM1285.08 46.036C1284.73 44.738 1284.49 43.204 1284.49 41.788C1284.49 34.59 1288.5 29.044 1296.65 29.044C1304.32 29.044 1308.21 34 1308.21 39.546C1308.21 44.856 1305.61 48.868 1299.12 52.762L1286.5 60.314C1272.81 68.574 1268.56 79.548 1268.44 93H1325.08V78.958H1288.39C1289.57 76.008 1292.04 73.884 1294.99 71.996L1309.74 63.028C1319.18 57.246 1324.61 49.222 1324.61 39.31C1324.61 25.976 1314.11 14.648 1297 14.648C1279.18 14.648 1269.03 26.802 1269.03 40.254C1269.03 42.142 1269.39 44.502 1269.62 45.564L1285.08 46.036Z" fill="#00E893"/>
<path d="M31.414 46.036C31.06 44.738 30.824 43.204 30.824 41.788C30.824 34.59 34.836 29.044 42.978 29.044C50.648 29.044 54.542 34 54.542 39.546C54.542 44.856 51.946 48.868 45.456 52.762L32.83 60.314C19.142 68.574 14.894 79.548 14.776 93H71.416V78.958H34.718C35.898 76.008 38.376 73.884 41.326 71.996L56.076 63.028C65.516 57.246 70.944 49.222 70.944 39.31C70.944 25.976 60.442 14.648 43.332 14.648C25.514 14.648 15.366 26.802 15.366 40.254C15.366 42.142 15.72 44.502 15.956 45.564L31.414 46.036ZM100.668 59.016C102.32 58.426 104.326 57.836 107.63 57.836C114.946 57.836 120.138 61.966 120.138 69.164C120.138 75.536 115.3 80.728 107.158 80.728C99.134 80.728 93.588 75.064 93.234 67.276L77.54 70.344C78.484 83.206 89.34 94.77 107.158 94.77C125.684 94.77 136.54 82.616 136.54 69.4C136.54 55.358 125.92 46.508 114.356 46.036L134.18 29.516V16.418H80.018V30.46H113.53L93.47 47.688L100.668 59.016Z" fill="#00E893"/>
<path d="M446.48 106.806V94.062C460.64 91.82 468.428 81.79 468.428 70.934C468.428 60.314 461.702 51.464 446.834 48.16L436.096 45.682C430.55 44.502 427.954 41.434 427.954 37.776C427.954 32.938 432.084 28.572 439.636 28.572C449.312 28.572 452.38 35.416 453.088 39.546L467.602 35.416C465.95 27.51 460.05 18.07 446.48 15.592V2.612H434.444V15.238C421.818 17.244 412.142 26.448 412.142 38.956C412.142 50.284 420.048 58.308 432.792 61.14L443.648 63.5C449.548 64.798 452.498 67.866 452.498 71.878C452.498 77.07 448.014 80.728 440.344 80.728C429.488 80.728 424.532 73.884 423.824 66.45L409.192 69.99C410.254 80.02 418.042 91.938 434.444 94.18V106.806H446.48ZM477.254 71.524C478.198 83.56 489.762 94.888 506.4 94.888C524.808 94.888 535.782 82.498 535.782 68.22C535.782 51.818 524.926 42.614 509.586 42.614C504.512 42.614 499.084 44.266 495.78 47.334L499.556 30.46H531.652V16.418H488.464L479.378 55.712C481.03 56.184 492.712 60.196 494.246 60.786C496.724 57.954 500.854 55.594 506.046 55.594C513.126 55.594 519.616 59.724 519.616 68.456C519.616 76.126 513.716 80.964 506.4 80.964C498.258 80.964 492.83 75.182 492.476 68.102L477.254 71.524ZM602.308 18.188C599.122 16.3 593.34 14.648 586.26 14.648C561.008 14.648 543.78 32.112 543.78 59.606C543.78 82.734 558.058 94.77 574.814 94.77C591.688 94.77 604.432 83.56 604.432 67.866C604.432 52.054 593.694 42.142 578 42.142C569.032 42.142 562.66 46.39 559.828 50.638C561.598 36.242 572.218 28.69 585.198 28.69C590.036 28.69 594.52 29.988 597.824 31.404L602.308 18.188ZM561.244 68.22C561.244 60.314 567.38 55.476 574.696 55.476C582.13 55.476 588.266 60.314 588.266 68.22C588.266 76.126 582.13 81.082 574.696 81.082C567.616 81.082 561.244 76.008 561.244 68.22ZM611.28 76.598H647.506V93H663.554V76.598H676.18V62.674H663.554V16.418H643.494L611.28 59.606V76.598ZM647.506 62.674H625.676L647.506 33.41V62.674ZM685.11 83.56C685.11 89.224 689.122 93.354 694.904 93.354C696.202 93.354 697.5 93 697.972 92.646C697.736 99.136 692.072 104.21 686.762 105.39V112.942C695.494 111.88 707.53 104.564 707.53 87.218C707.53 79.548 703.164 73.648 695.848 73.648C689.712 73.648 685.11 77.896 685.11 83.56ZM768.942 16.418H710.768V30.46H750.18C750.18 30.46 724.574 51.818 721.388 93H738.262C741.684 54.414 763.16 34.944 768.942 29.988V16.418ZM831.164 18.188C827.978 16.3 822.196 14.648 815.116 14.648C789.864 14.648 772.636 32.112 772.636 59.606C772.636 82.734 786.914 94.77 803.67 94.77C820.544 94.77 833.288 83.56 833.288 67.866C833.288 52.054 822.55 42.142 806.856 42.142C797.888 42.142 791.516 46.39 788.684 50.638C790.454 36.242 801.074 28.69 814.054 28.69C818.892 28.69 823.376 29.988 826.68 31.404L831.164 18.188ZM790.1 68.22C790.1 60.314 796.236 55.476 803.552 55.476C810.986 55.476 817.122 60.314 817.122 68.22C817.122 76.126 810.986 81.082 803.552 81.082C796.472 81.082 790.1 76.008 790.1 68.22ZM842.613 90.522C846.625 93 853.823 94.77 860.313 94.77C886.509 94.77 900.315 78.486 900.315 50.874C900.315 26.448 886.391 14.648 869.753 14.648C852.761 14.648 840.371 25.858 840.371 41.552C840.371 57.364 852.525 67.276 866.803 67.276C874.827 67.276 881.317 63.854 884.503 59.016C883.441 73.058 874.119 80.728 860.195 80.728C854.885 80.728 849.339 78.958 846.625 77.424L842.613 90.522ZM882.379 41.08C882.379 48.632 876.361 53.706 869.163 53.706C861.965 53.706 856.065 48.75 856.065 41.08C856.065 33.528 862.083 28.454 869.163 28.454C876.361 28.454 882.379 33.528 882.379 41.08Z" fill="#00E893"/>
<path d="M3.08245 152L6.90196 133.946H4.35562L0.536111 152H3.08245ZM14.0641 141.458C16.0503 141.458 16.916 142.859 16.916 144.616C16.916 147.773 15.21 150.192 12.8674 150.192C10.9067 150.192 9.96454 148.792 9.96454 146.856C9.96454 144.386 11.3905 141.458 14.0641 141.458ZM16.0248 150.447C15.9739 150.88 15.9739 151.109 15.9739 151.287C15.9739 151.618 15.9994 151.873 16.0248 152H18.2911C18.2656 151.796 18.2656 151.669 18.2656 151.593C18.2656 151.083 18.2656 150.09 18.5457 148.817L21.7541 133.564H19.386L17.7563 141.305C17.2216 140.338 15.9994 139.396 13.9368 139.396C10.1428 139.396 7.54551 142.91 7.54551 146.882C7.54551 149.887 9.20063 152.255 12.3836 152.255C13.8859 152.255 15.2355 151.465 16.0248 150.447ZM24.6187 144.616C25.0516 143.011 26.4012 141.484 28.4637 141.484C30.5008 141.484 31.1883 142.884 31.1883 144.106C31.1883 144.31 31.1628 144.514 31.1374 144.616H24.6187ZM33.3018 146.551C33.4291 146.143 33.6582 145.303 33.6582 144.31C33.6582 141.407 31.9013 139.37 28.591 139.37C25.1789 139.37 21.8687 142.171 21.8687 146.805C21.8687 150.472 24.3896 152.382 27.4197 152.382C29.966 152.382 31.9267 151.007 32.7925 149.403L30.9846 148.231C30.4244 149.224 29.2785 150.268 27.3688 150.268C25.6627 150.268 24.2622 148.995 24.2622 146.984C24.2622 146.831 24.2622 146.729 24.2877 146.551H33.3018ZM41.8402 141.458C43.8263 141.458 44.6921 142.859 44.6921 144.616C44.6921 147.773 42.986 150.192 40.6434 150.192C38.6827 150.192 37.7405 148.792 37.7405 146.856C37.7405 144.386 39.1665 141.458 41.8402 141.458ZM45.8634 139.752L45.5324 141.305C44.9976 140.338 43.7754 139.396 41.7128 139.396C37.9188 139.396 35.3215 142.91 35.3215 146.882C35.3215 149.887 36.9766 152.255 40.1596 152.255C41.6619 152.255 42.9605 151.465 43.8008 150.447C43.7499 150.829 43.7499 151.109 43.7499 151.287C43.7499 151.618 43.7754 151.873 43.8008 152H46.0671C46.0416 151.796 46.0416 151.669 46.0416 151.593C46.0416 151.083 46.0416 150.09 46.3217 148.817L48.2315 139.752H45.8634ZM49.2598 148.18C49.2598 149.937 50.5584 152.382 53.9196 152.382C57.1789 152.382 58.4011 150.116 58.4011 148.537C58.4011 147.086 57.4844 145.863 55.8548 145.125L54.1742 144.361C53.5631 144.081 53.2066 143.673 53.2066 142.986C53.2066 142.146 53.9196 141.382 55.1418 141.382C56.8988 141.382 57.4335 142.553 57.5863 143.495L59.7252 142.91C59.5979 141.611 58.5794 139.37 55.371 139.37C52.57 139.37 50.8894 141.28 50.8894 143.342C50.8894 144.743 51.6788 145.812 53.0793 146.449L54.8617 147.264C55.6256 147.62 56.0076 148.104 56.0076 148.715C56.0076 149.53 55.3964 150.345 54.0469 150.345C52.3918 150.345 51.3987 149.148 51.3732 147.697L49.2598 148.18ZM70.2709 152L71.875 144.412H79.4377L79.9215 142.069H72.3589L73.6066 136.264H81.9586L82.4424 133.946H71.5949L67.7754 152H70.2709ZM88.7448 150.574C88.7193 150.905 88.7193 151.16 88.7193 151.287C88.7193 151.618 88.7448 151.873 88.7702 152H91.0619C91.0365 151.796 91.0365 151.669 91.0365 151.593C91.0365 151.083 91.0365 150.09 91.3166 148.817L93.2263 139.752H90.8582L89.3559 146.907C88.9994 148.639 87.9045 150.218 86.0711 150.218C84.4669 150.218 83.9067 149.275 83.9067 148.028C83.9067 147.646 83.9576 147.264 84.034 146.856L85.5364 139.752H83.1428L81.615 146.907C81.5131 147.391 81.4622 147.875 81.4622 148.308C81.4622 150.676 82.8882 152.255 85.4091 152.255C86.5549 152.255 87.9299 151.72 88.7448 150.574ZM104.913 152L106.568 144.234C106.644 143.826 106.695 143.419 106.695 143.062C106.695 140.822 105.193 139.396 103.054 139.396C101.577 139.396 100.202 139.828 99.2598 141.102C99.3616 140.541 99.4125 139.854 99.4125 139.752H97.0699C97.0699 139.803 97.019 140.771 96.7643 141.916L94.6254 152H97.019L98.5468 144.87C98.9033 143.215 100.024 141.509 101.959 141.509C103.436 141.509 104.2 142.298 104.2 143.648C104.2 144.03 104.149 144.336 104.098 144.59L102.519 152H104.913ZM115.396 141.458C117.382 141.458 118.248 142.859 118.248 144.616C118.248 147.773 116.541 150.192 114.199 150.192C112.238 150.192 111.296 148.792 111.296 146.856C111.296 144.386 112.722 141.458 115.396 141.458ZM117.356 150.447C117.305 150.88 117.305 151.109 117.305 151.287C117.305 151.618 117.331 151.873 117.356 152H119.623C119.597 151.796 119.597 151.669 119.597 151.593C119.597 151.083 119.597 150.09 119.877 148.817L123.086 133.564H120.717L119.088 141.305C118.553 140.338 117.331 139.396 115.268 139.396C111.474 139.396 108.877 142.91 108.877 146.882C108.877 149.887 110.532 152.255 113.715 152.255C115.217 152.255 116.567 151.465 117.356 150.447ZM125.95 144.616C126.383 143.011 127.733 141.484 129.795 141.484C131.832 141.484 132.52 142.884 132.52 144.106C132.52 144.31 132.494 144.514 132.469 144.616H125.95ZM134.633 146.551C134.761 146.143 134.99 145.303 134.99 144.31C134.99 141.407 133.233 139.37 129.922 139.37C126.51 139.37 123.2 142.171 123.2 146.805C123.2 150.472 125.721 152.382 128.751 152.382C131.298 152.382 133.258 151.007 134.124 149.403L132.316 148.231C131.756 149.224 130.61 150.268 128.7 150.268C126.994 150.268 125.594 148.995 125.594 146.984C125.594 146.831 125.594 146.729 125.619 146.551H134.633ZM143.172 141.458C145.158 141.458 146.024 142.859 146.024 144.616C146.024 147.773 144.317 150.192 141.975 150.192C140.014 150.192 139.072 148.792 139.072 146.856C139.072 144.386 140.498 141.458 143.172 141.458ZM145.132 150.447C145.081 150.88 145.081 151.109 145.081 151.287C145.081 151.618 145.107 151.873 145.132 152H147.399C147.373 151.796 147.373 151.669 147.373 151.593C147.373 151.083 147.373 150.09 147.653 148.817L150.862 133.564H148.493L146.864 141.305C146.329 140.338 145.107 139.396 143.044 139.396C139.25 139.396 136.653 142.91 136.653 146.882C136.653 149.887 138.308 152.255 141.491 152.255C142.993 152.255 144.343 151.465 145.132 150.447Z" fill="black"/>
<path d="M1163.31 152L1167.13 133.946H1164.58L1160.76 152H1163.31ZM1177.93 152L1179.58 144.234C1179.66 143.826 1179.71 143.419 1179.71 143.062C1179.71 140.822 1178.21 139.396 1176.07 139.396C1174.59 139.396 1173.22 139.828 1172.28 141.102C1172.38 140.541 1172.43 139.854 1172.43 139.752H1170.09C1170.09 139.803 1170.03 140.771 1169.78 141.916L1167.64 152H1170.03L1171.56 144.87C1171.92 143.215 1173.04 141.509 1174.97 141.509C1176.45 141.509 1177.22 142.298 1177.22 143.648C1177.22 144.03 1177.16 144.336 1177.11 144.59L1175.53 152H1177.93ZM1193.8 139.752H1191.1L1185.85 149.123L1184.5 139.752H1182.03L1184.22 152H1186.54L1193.8 139.752ZM1196.31 144.616C1196.74 143.011 1198.09 141.484 1200.15 141.484C1202.19 141.484 1202.87 142.884 1202.87 144.106C1202.87 144.31 1202.85 144.514 1202.82 144.616H1196.31ZM1204.99 146.551C1205.12 146.143 1205.34 145.303 1205.34 144.31C1205.34 141.407 1203.59 139.37 1200.28 139.37C1196.87 139.37 1193.56 142.171 1193.56 146.805C1193.56 150.472 1196.08 152.382 1199.11 152.382C1201.65 152.382 1203.61 151.007 1204.48 149.403L1202.67 148.231C1202.11 149.224 1200.97 150.268 1199.06 150.268C1197.35 150.268 1195.95 148.995 1195.95 146.984C1195.95 146.831 1195.95 146.729 1195.97 146.551H1204.99ZM1206.5 148.18C1206.5 149.937 1207.8 152.382 1211.16 152.382C1214.42 152.382 1215.64 150.116 1215.64 148.537C1215.64 147.086 1214.72 145.863 1213.09 145.125L1211.41 144.361C1210.8 144.081 1210.45 143.673 1210.45 142.986C1210.45 142.146 1211.16 141.382 1212.38 141.382C1214.14 141.382 1214.67 142.553 1214.83 143.495L1216.96 142.91C1216.84 141.611 1215.82 139.37 1212.61 139.37C1209.81 139.37 1208.13 141.28 1208.13 143.342C1208.13 144.743 1208.92 145.812 1210.32 146.449L1212.1 147.264C1212.86 147.62 1213.25 148.104 1213.25 148.715C1213.25 149.53 1212.64 150.345 1211.29 150.345C1209.63 150.345 1208.64 149.148 1208.61 147.697L1206.5 148.18ZM1219.5 149.428C1219.5 151.134 1220.67 152.127 1222.45 152.127C1223.19 152.127 1223.62 152 1223.75 151.949L1224.16 149.988C1223.95 150.014 1223.62 150.039 1223.34 150.039C1222.42 150.039 1221.97 149.708 1221.97 148.944C1221.97 148.766 1221.99 148.588 1222.04 148.359L1223.39 141.916H1225.86L1226.32 139.752H1223.85L1224.69 135.882H1222.5L1222.09 137.766C1221.84 138.988 1221.02 139.752 1219.57 139.752H1219.22L1218.76 141.916H1221L1219.6 148.486C1219.52 148.817 1219.5 149.123 1219.5 149.428ZM1233.37 141.509C1235.33 141.509 1236.5 142.935 1236.5 145.048C1236.5 148.384 1234.49 150.243 1232.38 150.243C1230.49 150.243 1229.27 148.843 1229.27 146.678C1229.27 143.342 1231.28 141.509 1233.37 141.509ZM1238.95 144.998C1238.95 141.916 1237.06 139.37 1233.52 139.37C1229.7 139.37 1226.83 142.528 1226.83 146.729C1226.83 149.81 1228.81 152.382 1232.28 152.382C1236.1 152.382 1238.95 149.123 1238.95 144.998ZM1249.18 142.222L1249.74 139.599C1249.57 139.574 1249.29 139.548 1249.06 139.548C1247.71 139.548 1246.03 140.032 1245.03 141.662C1245.16 141.229 1245.26 140.287 1245.26 139.752H1242.92C1242.92 139.905 1242.84 140.796 1242.61 141.916L1240.48 152H1242.84L1244.09 146.194C1244.7 143.342 1246.36 142.146 1248.32 142.146C1248.6 142.146 1248.88 142.171 1249.18 142.222ZM1249.62 148.18C1249.62 149.937 1250.92 152.382 1254.28 152.382C1257.54 152.382 1258.76 150.116 1258.76 148.537C1258.76 147.086 1257.84 145.863 1256.21 145.125L1254.53 144.361C1253.92 144.081 1253.56 143.673 1253.56 142.986C1253.56 142.146 1254.28 141.382 1255.5 141.382C1257.26 141.382 1257.79 142.553 1257.94 143.495L1260.08 142.91C1259.96 141.611 1258.94 139.37 1255.73 139.37C1252.93 139.37 1251.25 141.28 1251.25 143.342C1251.25 144.743 1252.04 145.812 1253.44 146.449L1255.22 147.264C1255.98 147.62 1256.37 148.104 1256.37 148.715C1256.37 149.53 1255.75 150.345 1254.4 150.345C1252.75 150.345 1251.76 149.148 1251.73 147.697L1249.62 148.18ZM1269.86 152L1270.3 149.988C1270.88 151.414 1272.39 152.331 1274.17 152.331C1278.04 152.331 1280.69 148.995 1280.69 144.692C1280.69 141.789 1279.11 139.396 1275.93 139.396C1274.45 139.396 1273.12 139.854 1272.23 140.771L1273.76 133.564H1271.39L1267.5 152H1269.86ZM1275.03 141.509C1277.07 141.509 1278.24 142.782 1278.24 144.947C1278.24 148.333 1276.21 150.192 1274.02 150.192C1272.13 150.116 1271.04 148.715 1271.04 146.78C1271.04 143.572 1272.95 141.509 1275.03 141.509ZM1285.13 144.616C1285.56 143.011 1286.91 141.484 1288.97 141.484C1291.01 141.484 1291.7 142.884 1291.7 144.106C1291.7 144.31 1291.67 144.514 1291.65 144.616H1285.13ZM1293.81 146.551C1293.94 146.143 1294.17 145.303 1294.17 144.31C1294.17 141.407 1292.41 139.37 1289.1 139.37C1285.69 139.37 1282.38 142.171 1282.38 146.805C1282.38 150.472 1284.9 152.382 1287.93 152.382C1290.48 152.382 1292.44 151.007 1293.3 149.403L1291.49 148.231C1290.93 149.224 1289.79 150.268 1287.88 150.268C1286.17 150.268 1284.77 148.995 1284.77 146.984C1284.77 146.831 1284.77 146.729 1284.8 146.551H1293.81ZM1298.1 152L1302.02 133.564H1299.63L1295.7 152H1298.1ZM1305.25 135.22C1305.25 136.06 1305.89 136.747 1306.8 136.747C1307.72 136.747 1308.69 135.907 1308.69 134.863C1308.69 134.023 1308.05 133.335 1307.13 133.335C1306.22 133.335 1305.25 134.15 1305.25 135.22ZM1304.59 152L1307.21 139.752H1304.82L1302.19 152H1304.59ZM1311.61 144.616C1312.04 143.011 1313.39 141.484 1315.46 141.484C1317.49 141.484 1318.18 142.884 1318.18 144.106C1318.18 144.31 1318.16 144.514 1318.13 144.616H1311.61ZM1320.29 146.551C1320.42 146.143 1320.65 145.303 1320.65 144.31C1320.65 141.407 1318.89 139.37 1315.58 139.37C1312.17 139.37 1308.86 142.171 1308.86 146.805C1308.86 150.472 1311.38 152.382 1314.41 152.382C1316.96 152.382 1318.92 151.007 1319.79 149.403L1317.98 148.231C1317.42 149.224 1316.27 150.268 1314.36 150.268C1312.66 150.268 1311.26 148.995 1311.26 146.984C1311.26 146.831 1311.26 146.729 1311.28 146.551H1320.29ZM1334.22 139.752H1331.52L1326.27 149.123L1324.92 139.752H1322.45L1324.64 152H1326.96L1334.22 139.752ZM1336.73 144.616C1337.16 143.011 1338.51 141.484 1340.57 141.484C1342.61 141.484 1343.3 142.884 1343.3 144.106C1343.3 144.31 1343.27 144.514 1343.25 144.616H1336.73ZM1345.41 146.551C1345.54 146.143 1345.77 145.303 1345.77 144.31C1345.77 141.407 1344.01 139.37 1340.7 139.37C1337.29 139.37 1333.98 142.171 1333.98 146.805C1333.98 150.472 1336.5 152.382 1339.53 152.382C1342.07 152.382 1344.04 151.007 1344.9 149.403L1343.09 148.231C1342.53 149.224 1341.39 150.268 1339.48 150.268C1337.77 150.268 1336.37 148.995 1336.37 146.984C1336.37 146.831 1336.37 146.729 1336.4 146.551H1345.41ZM1353.95 141.458C1355.93 141.458 1356.8 142.859 1356.8 144.616C1356.8 147.773 1355.09 150.192 1352.75 150.192C1350.79 150.192 1349.85 148.792 1349.85 146.856C1349.85 144.386 1351.27 141.458 1353.95 141.458ZM1355.91 150.447C1355.86 150.88 1355.86 151.109 1355.86 151.287C1355.86 151.618 1355.88 151.873 1355.91 152H1358.18C1358.15 151.796 1358.15 151.669 1358.15 151.593C1358.15 151.083 1358.15 150.09 1358.43 148.817L1361.64 133.564H1359.27L1357.64 141.305C1357.11 140.338 1355.88 139.396 1353.82 139.396C1350.03 139.396 1347.43 142.91 1347.43 146.882C1347.43 149.887 1349.09 152.255 1352.27 152.255C1353.77 152.255 1355.12 151.465 1355.91 150.447Z" fill="black"/>
<path d="M483.934 152H486.583L483.629 144.336C486.455 143.724 488.467 141.611 488.467 138.53C488.467 135.907 486.634 133.946 483.502 133.946H477.645L473.825 152H476.321L477.9 144.514H481.108L483.934 152ZM478.358 142.298L479.682 136.162H483.094C484.978 136.162 485.946 137.18 485.946 138.683C485.946 140.974 484.265 142.298 481.897 142.298H478.358ZM495.883 141.458C497.869 141.458 498.735 142.859 498.735 144.616C498.735 147.773 497.029 150.192 494.686 150.192C492.725 150.192 491.783 148.792 491.783 146.856C491.783 144.386 493.209 141.458 495.883 141.458ZM499.906 139.752L499.575 141.305C499.04 140.338 497.818 139.396 495.755 139.396C491.961 139.396 489.364 142.91 489.364 146.882C489.364 149.887 491.019 152.255 494.202 152.255C495.705 152.255 497.003 151.465 497.843 150.447C497.793 150.829 497.793 151.109 497.793 151.287C497.793 151.618 497.818 151.873 497.843 152H500.11C500.084 151.796 500.084 151.669 500.084 151.593C500.084 151.083 500.084 150.09 500.364 148.817L502.274 139.752H499.906ZM506.74 135.22C506.74 136.06 507.376 136.747 508.293 136.747C509.21 136.747 510.177 135.907 510.177 134.863C510.177 134.023 509.541 133.335 508.624 133.335C507.708 133.335 506.74 134.15 506.74 135.22ZM506.078 152L508.701 139.752H506.307L503.684 152H506.078ZM509.842 148.18C509.842 149.937 511.141 152.382 514.502 152.382C517.761 152.382 518.984 150.116 518.984 148.537C518.984 147.086 518.067 145.863 516.437 145.125L514.757 144.361C514.146 144.081 513.789 143.673 513.789 142.986C513.789 142.146 514.502 141.382 515.724 141.382C517.481 141.382 518.016 142.553 518.169 143.495L520.308 142.91C520.18 141.611 519.162 139.37 515.953 139.37C513.153 139.37 511.472 141.28 511.472 143.342C511.472 144.743 512.261 145.812 513.662 146.449L515.444 147.264C516.208 147.62 516.59 148.104 516.59 148.715C516.59 149.53 515.979 150.345 514.629 150.345C512.974 150.345 511.981 149.148 511.956 147.697L509.842 148.18ZM524.341 144.616C524.774 143.011 526.124 141.484 528.186 141.484C530.223 141.484 530.911 142.884 530.911 144.106C530.911 144.31 530.885 144.514 530.86 144.616H524.341ZM533.024 146.551C533.152 146.143 533.381 145.303 533.381 144.31C533.381 141.407 531.624 139.37 528.314 139.37C524.901 139.37 521.591 142.171 521.591 146.805C521.591 150.472 524.112 152.382 527.142 152.382C529.689 152.382 531.649 151.007 532.515 149.403L530.707 148.231C530.147 149.224 529.001 150.268 527.091 150.268C525.385 150.268 523.985 148.995 523.985 146.984C523.985 146.831 523.985 146.729 524.01 146.551H533.024ZM541.563 141.458C543.549 141.458 544.415 142.859 544.415 144.616C544.415 147.773 542.709 150.192 540.366 150.192C538.405 150.192 537.463 148.792 537.463 146.856C537.463 144.386 538.889 141.458 541.563 141.458ZM543.523 150.447C543.472 150.88 543.472 151.109 543.472 151.287C543.472 151.618 543.498 151.873 543.523 152H545.79C545.764 151.796 545.764 151.669 545.764 151.593C545.764 151.083 545.764 150.09 546.044 148.817L549.253 133.564H546.885L545.255 141.305C544.72 140.338 543.498 139.396 541.435 139.396C537.641 139.396 535.044 142.91 535.044 146.882C535.044 149.887 536.699 152.255 539.882 152.255C541.384 152.255 542.734 151.465 543.523 150.447ZM564.305 135.627C564.814 135.627 565.196 135.78 565.323 135.831L565.782 133.794C565.705 133.743 565.12 133.437 564.152 133.437C562.65 133.437 560.46 133.896 559.772 137.206L559.238 139.752H557.175L556.717 141.866H558.779L556.64 152H559.11L561.249 141.866H564.025L564.483 139.752H561.707L562.166 137.588C562.497 136.085 563.286 135.627 564.305 135.627ZM571.13 141.509C573.09 141.509 574.262 142.935 574.262 145.048C574.262 148.384 572.25 150.243 570.137 150.243C568.252 150.243 567.03 148.843 567.03 146.678C567.03 143.342 569.042 141.509 571.13 141.509ZM576.706 144.998C576.706 141.916 574.822 139.37 571.282 139.37C567.463 139.37 564.586 142.528 564.586 146.729C564.586 149.81 566.572 152.382 570.035 152.382C573.854 152.382 576.706 149.123 576.706 144.998ZM586.943 142.222L587.503 139.599C587.325 139.574 587.045 139.548 586.816 139.548C585.466 139.548 583.785 140.032 582.792 141.662C582.92 141.229 583.022 140.287 583.022 139.752H580.679C580.679 139.905 580.603 140.796 580.373 141.916L578.234 152H580.603L581.85 146.194C582.461 143.342 584.116 142.146 586.077 142.146C586.357 142.146 586.637 142.171 586.943 142.222ZM604.436 152L606.091 144.234C606.168 143.826 606.219 143.419 606.219 143.062C606.219 140.822 604.716 139.396 602.577 139.396C601.101 139.396 599.726 139.828 598.783 141.102C598.885 140.541 598.936 139.854 598.936 139.752H596.594C596.594 139.803 596.543 140.771 596.288 141.916L594.149 152H596.543L598.07 144.87C598.427 143.215 599.547 141.509 601.483 141.509C602.959 141.509 603.723 142.298 603.723 143.648C603.723 144.03 603.672 144.336 603.621 144.59L602.043 152H604.436ZM611.151 144.616C611.584 143.011 612.933 141.484 614.996 141.484C617.033 141.484 617.72 142.884 617.72 144.106C617.72 144.31 617.695 144.514 617.669 144.616H611.151ZM619.834 146.551C619.961 146.143 620.19 145.303 620.19 144.31C620.19 141.407 618.433 139.37 615.123 139.37C611.711 139.37 608.401 142.171 608.401 146.805C608.401 150.472 610.921 152.382 613.952 152.382C616.498 152.382 618.459 151.007 619.324 149.403L617.517 148.231C616.956 149.224 615.81 150.268 613.901 150.268C612.195 150.268 610.794 148.995 610.794 146.984C610.794 146.831 610.794 146.729 610.82 146.551H619.834ZM630.361 139.752L625.574 148.868L624.785 139.752H622.493L623.741 152H626.262L631.1 142.731L632.322 152H634.792L641.285 139.752H638.662L634.053 148.893L632.882 139.752H630.361ZM659.576 143.241C659.143 141.509 657.819 139.37 654.483 139.37C650.791 139.37 647.786 142.375 647.786 146.729C647.786 149.937 649.925 152.382 653.439 152.382C656.291 152.382 658.048 150.65 658.99 148.817L656.953 147.926C656.393 149.046 655.425 150.243 653.541 150.243C651.529 150.243 650.205 148.868 650.205 146.704C650.205 143.241 652.242 141.509 654.33 141.509C656.138 141.509 657.055 142.706 657.361 144.004L659.576 143.241ZM669.177 142.222L669.737 139.599C669.559 139.574 669.279 139.548 669.049 139.548C667.7 139.548 666.019 140.032 665.026 141.662C665.154 141.229 665.255 140.287 665.255 139.752H662.913C662.913 139.905 662.836 140.796 662.607 141.916L660.468 152H662.836L664.084 146.194C664.695 143.342 666.35 142.146 668.311 142.146C668.591 142.146 668.871 142.171 669.177 142.222ZM672.621 144.616C673.054 143.011 674.403 141.484 676.466 141.484C678.503 141.484 679.19 142.884 679.19 144.106C679.19 144.31 679.165 144.514 679.14 144.616H672.621ZM681.304 146.551C681.431 146.143 681.66 145.303 681.66 144.31C681.66 141.407 679.903 139.37 676.593 139.37C673.181 139.37 669.871 142.171 669.871 146.805C669.871 150.472 672.392 152.382 675.422 152.382C677.968 152.382 679.929 151.007 680.795 149.403L678.987 148.231C678.427 149.224 677.281 150.268 675.371 150.268C673.665 150.268 672.264 148.995 672.264 146.984C672.264 146.831 672.264 146.729 672.29 146.551H681.304ZM689.842 141.458C691.828 141.458 692.694 142.859 692.694 144.616C692.694 147.773 690.988 150.192 688.646 150.192C686.685 150.192 685.743 148.792 685.743 146.856C685.743 144.386 687.169 141.458 689.842 141.458ZM693.866 139.752L693.535 141.305C693 140.338 691.778 139.396 689.715 139.396C685.921 139.396 683.324 142.91 683.324 146.882C683.324 149.887 684.979 152.255 688.162 152.255C689.664 152.255 690.963 151.465 691.803 150.447C691.752 150.829 691.752 151.109 691.752 151.287C691.752 151.618 691.778 151.873 691.803 152H694.069C694.044 151.796 694.044 151.669 694.044 151.593C694.044 151.083 694.044 150.09 694.324 148.817L696.234 139.752H693.866ZM698.77 149.428C698.77 151.134 699.942 152.127 701.724 152.127C702.462 152.127 702.895 152 703.023 151.949L703.43 149.988C703.226 150.014 702.895 150.039 702.615 150.039C701.699 150.039 701.24 149.708 701.24 148.944C701.24 148.766 701.266 148.588 701.317 148.359L702.666 141.916H705.136L705.594 139.752H703.124L703.965 135.882H701.775L701.368 137.766C701.113 138.988 700.298 139.752 698.847 139.752H698.49L698.032 141.916H700.273L698.872 148.486C698.796 148.817 698.77 149.123 698.77 149.428ZM709.03 135.22C709.03 136.06 709.666 136.747 710.583 136.747C711.5 136.747 712.467 135.907 712.467 134.863C712.467 134.023 711.831 133.335 710.914 133.335C709.997 133.335 709.03 134.15 709.03 135.22ZM708.368 152L710.991 139.752H708.597L705.974 152H708.368ZM725.042 139.752H722.343L717.098 149.123L715.748 139.752H713.278L715.468 152H717.785L725.042 139.752ZM727.551 144.616C727.984 143.011 729.334 141.484 731.396 141.484C733.433 141.484 734.121 142.884 734.121 144.106C734.121 144.31 734.095 144.514 734.07 144.616H727.551ZM736.234 146.551C736.362 146.143 736.591 145.303 736.591 144.31C736.591 141.407 734.834 139.37 731.524 139.37C728.111 139.37 724.801 142.171 724.801 146.805C724.801 150.472 727.322 152.382 730.352 152.382C732.899 152.382 734.859 151.007 735.725 149.403L733.917 148.231C733.357 149.224 732.211 150.268 730.301 150.268C728.595 150.268 727.195 148.995 727.195 146.984C727.195 146.831 727.195 146.729 727.22 146.551H736.234ZM752.049 141.585C754.035 141.585 755.155 142.782 755.155 144.947C755.155 148.282 753.093 150.192 751.03 150.192C749.146 150.192 747.975 148.944 747.975 146.78C747.975 143.444 749.961 141.585 752.049 141.585ZM749.044 141.153C749.171 140.541 749.197 139.905 749.197 139.752H746.854C746.854 139.956 746.778 140.822 746.549 141.916L743.366 156.838H745.734L747.16 150.116C747.873 151.491 749.502 152.331 751.183 152.331C755.053 152.331 757.6 148.995 757.6 144.667C757.6 141.764 756.123 139.421 752.94 139.421C751.438 139.421 749.961 140.007 749.044 141.153ZM767.872 142.222L768.433 139.599C768.254 139.574 767.974 139.548 767.745 139.548C766.396 139.548 764.715 140.032 763.722 141.662C763.849 141.229 763.951 140.287 763.951 139.752H761.608C761.608 139.905 761.532 140.796 761.303 141.916L759.164 152H761.532L762.78 146.194C763.391 143.342 765.046 142.146 767.007 142.146C767.287 142.146 767.567 142.171 767.872 142.222ZM775.111 141.509C777.071 141.509 778.243 142.935 778.243 145.048C778.243 148.384 776.231 150.243 774.117 150.243C772.233 150.243 771.011 148.843 771.011 146.678C771.011 143.342 773.023 141.509 775.111 141.509ZM780.687 144.998C780.687 141.916 778.803 139.37 775.263 139.37C771.444 139.37 768.566 142.528 768.566 146.729C768.566 149.81 770.553 152.382 774.016 152.382C777.835 152.382 780.687 149.123 780.687 144.998ZM781.884 153.451C781.63 154.597 781.171 155.107 780.102 155.107C779.643 155.107 779.236 154.979 779.16 154.954L778.752 156.864C778.93 156.965 779.567 157.22 780.484 157.22C782.343 157.22 783.743 156.049 784.176 154.012L787.206 139.752H784.838L781.884 153.451ZM785.271 135.22C785.271 136.06 785.907 136.747 786.824 136.747C787.741 136.747 788.708 135.907 788.708 134.863C788.708 134.023 788.072 133.335 787.155 133.335C786.238 133.335 785.271 134.15 785.271 135.22ZM791.608 144.616C792.041 143.011 793.39 141.484 795.453 141.484C797.49 141.484 798.177 142.884 798.177 144.106C798.177 144.31 798.152 144.514 798.126 144.616H791.608ZM800.291 146.551C800.418 146.143 800.647 145.303 800.647 144.31C800.647 141.407 798.89 139.37 795.58 139.37C792.168 139.37 788.858 142.171 788.858 146.805C788.858 150.472 791.379 152.382 794.409 152.382C796.955 152.382 798.916 151.007 799.781 149.403L797.974 148.231C797.413 149.224 796.267 150.268 794.358 150.268C792.652 150.268 791.251 148.995 791.251 146.984C791.251 146.831 791.251 146.729 791.277 146.551H800.291ZM813.973 143.241C813.54 141.509 812.216 139.37 808.88 139.37C805.188 139.37 802.183 142.375 802.183 146.729C802.183 149.937 804.322 152.382 807.836 152.382C810.688 152.382 812.445 150.65 813.387 148.817L811.35 147.926C810.79 149.046 809.822 150.243 807.938 150.243C805.926 150.243 804.602 148.868 804.602 146.704C804.602 143.241 806.639 141.509 808.727 141.509C810.535 141.509 811.452 142.706 811.757 144.004L813.973 143.241ZM816.24 149.428C816.24 151.134 817.411 152.127 819.194 152.127C819.932 152.127 820.365 152 820.493 151.949L820.9 149.988C820.696 150.014 820.365 150.039 820.085 150.039C819.168 150.039 818.71 149.708 818.71 148.944C818.71 148.766 818.736 148.588 818.786 148.359L820.136 141.916H822.606L823.064 139.752H820.594L821.435 135.882H819.245L818.837 137.766C818.583 138.988 817.768 139.752 816.317 139.752H815.96L815.502 141.916H817.742L816.342 148.486C816.266 148.817 816.24 149.123 816.24 149.428ZM823.062 148.18C823.062 149.937 824.361 152.382 827.722 152.382C830.981 152.382 832.204 150.116 832.204 148.537C832.204 147.086 831.287 145.863 829.657 145.125L827.977 144.361C827.365 144.081 827.009 143.673 827.009 142.986C827.009 142.146 827.722 141.382 828.944 141.382C830.701 141.382 831.236 142.553 831.389 143.495L833.528 142.91C833.4 141.611 832.382 139.37 829.173 139.37C826.372 139.37 824.692 141.28 824.692 143.342C824.692 144.743 825.481 145.812 826.882 146.449L828.664 147.264C829.428 147.62 829.81 148.104 829.81 148.715C829.81 149.53 829.199 150.345 827.849 150.345C826.194 150.345 825.201 149.148 825.176 147.697L823.062 148.18Z" fill="black"/>
<path d="M258 0V161" stroke="black" stroke-opacity="0.2"/>
<path d="M1055 0V161" stroke="black" stroke-opacity="0.2"/>
</svg>
