<svg width="527" height="550" viewBox="0 0 527 550" fill="none" xmlns="http://www.w3.org/2000/svg">
<rect width="527" height="550" fill="#0AD98D"/>
<path d="M111.352 198.446H481.055V319.813H467.051V351.554L435.309 319.813H111.352V198.446Z" fill="white"/>
<path d="M470.785 210.264H121.621V307.358H470.785V210.264Z" fill="white"/>
<path d="M317.813 238.611H149.699V243.713H317.813V238.611Z" fill="#248863"/>
<path d="M442.707 256.26H149.699V261.362H442.707V256.26Z" fill="#E6E6E6"/>
<path d="M442.42 273.909H149.699V279.011H442.42V273.909Z" fill="#E6E6E6"/>
<path d="M415.703 360.89H46V482.258H60.004V514L91.7458 482.258H415.703V360.89Z" fill="white"/>
<path d="M405.434 372.71H56.2695V469.804H405.434V372.71Z" fill="white"/>
<path d="M255.262 401.99H87.1485V407.092H255.262V401.99Z" fill="#248863"/>
<path d="M380.156 419.639H87.1485V424.741H380.156V419.639Z" fill="#E6E6E6"/>
<path d="M379.869 437.288H87.1485V442.39H379.869V437.288Z" fill="#E6E6E6"/>
<path d="M415.703 36H46V157.367H60.004V189.11L91.7458 157.367H415.703V36Z" fill="white"/>
<path d="M405.434 47.8188H56.2695V144.913H405.434V47.8188Z" fill="white"/>
<path d="M255.262 77.0997H87.1485V82.2015H255.262V77.0997Z" fill="#248863"/>
<path d="M380.156 94.7485H87.1485V99.8504H380.156V94.7485Z" fill="#E6E6E6"/>
<path d="M379.869 112.397H87.1485V117.499H379.869V112.397Z" fill="#E6E6E6"/>
</svg>
